<?xml version="1.0" encoding="utf-8"?>
<!-- Generator: Adobe Illustrator 16.0.0, SVG Export Plug-In . SVG Version: 6.00 Build 0)  -->
<!DOCTYPE svg PUBLIC "-//W3C//DTD SVG 1.1//EN" "http://www.w3.org/Graphics/SVG/1.1/DTD/svg11.dtd">
<svg version="1.1" id="Layer_1" xmlns="http://www.w3.org/2000/svg" xmlns:xlink="http://www.w3.org/1999/xlink" x="0px" y="0px"
	 width="64px" height="64px" viewBox="224 224 64 64" enable-background="new 224 224 64 64" xml:space="preserve">
<path d="M285.812,226.129c-0.79-0.789-1.826-1.184-2.862-1.184c-1.037,0-2.073,0.395-2.862,1.184l-11.91,11.909v-2.256H225v51.272
	h51.272v-43.177h-2.482l12.022-12.023C287.396,230.275,287.396,227.711,285.812,226.129z M273.574,284.355h-45.875V238.48h40.037
	l-21.146,21.146v5.84h5.616l21.37-21.372V284.355z M283.905,229.946l-32.818,32.821h-1.8v-2.023l32.71-32.708
	c0.343-0.343,0.744-0.393,0.953-0.393c0.21,0,0.611,0.051,0.955,0.395c0.346,0.345,0.396,0.746,0.396,0.956
	C284.302,229.202,284.251,229.602,283.905,229.946z"/>
</svg>
