<?xml version="1.0" encoding="utf-8"?>
<!-- Generator: Adobe Illustrator 16.0.0, SVG Export Plug-In . SVG Version: 6.00 Build 0)  -->
<!DOCTYPE svg PUBLIC "-//W3C//DTD SVG 1.1//EN" "http://www.w3.org/Graphics/SVG/1.1/DTD/svg11.dtd">
<svg version="1.1" id="Layer_1" xmlns="http://www.w3.org/2000/svg" xmlns:xlink="http://www.w3.org/1999/xlink" x="0px" y="0px"
	 width="20px" height="20px" viewBox="327.417 246 20 20" enable-background="new 327.417 246 20 20" xml:space="preserve">
<path d="M346.554,246.847c-0.242-0.241-0.56-0.362-0.878-0.362c-0.317,0-0.637,0.121-0.877,0.362l-3.649,3.649v-0.691h-13.232
	v15.711h15.711v-13.23h-0.76l3.686-3.685C347.038,248.117,347.038,247.331,346.554,246.847z M342.803,264.689h-14.06v-14.058h12.27
	l-6.48,6.479v1.79h1.723l6.548-6.55V264.689z M345.969,248.017l-10.058,10.057h-0.551v-0.619l10.023-10.023
	c0.105-0.104,0.227-0.12,0.292-0.12c0.064,0,0.188,0.016,0.293,0.121s0.122,0.229,0.122,0.293
	C346.091,247.788,346.074,247.911,345.969,248.017z"/>
</svg>
