<?xml version="1.0" encoding="utf-8"?>
<!-- Generator: Adobe Illustrator 16.0.0, SVG Export Plug-In . SVG Version: 6.00 Build 0)  -->
<!DOCTYPE svg PUBLIC "-//W3C//DTD SVG 1.1//EN" "http://www.w3.org/Graphics/SVG/1.1/DTD/svg11.dtd">
<svg version="1.1" id="Layer_1" xmlns="http://www.w3.org/2000/svg" xmlns:xlink="http://www.w3.org/1999/xlink" x="0px" y="0px"
	 width="18px" height="18px" viewBox="0 0 18 18" enable-background="new 0 0 18 18" xml:space="preserve">
<g>
	<g>
		<path d="M16.5,16.6V5.919c0-0.171-0.069-0.332-0.191-0.442l-4.862-4.521c-0.11-0.101-0.261-0.161-0.412-0.161h-7.52
			c-0.333,0-0.605,0.271-0.605,0.604v6.744c0,0.332,0.272,0.604,0.605,0.604c0.332,0,0.604-0.272,0.604-0.604V2.003h6.141v4.631
			c0,0.332,0.272,0.604,0.604,0.604h4.329c0.029,0,0.07,0,0.101-0.009v8.768H4.118V13.58c0-0.331-0.272-0.604-0.604-0.604
			c-0.333,0-0.605,0.272-0.605,0.604v3.02c0,0.333,0.272,0.605,0.605,0.605h12.381C16.229,17.205,16.5,16.933,16.5,16.6z
			 M11.467,2.627L15.12,6.03h-3.653V2.627z"/>
		<path d="M1.5,10.762c0,0.332,0.273,0.604,0.605,0.604h6.291l-1.942,1.731c-0.251,0.221-0.271,0.605-0.051,0.856
			c0.122,0.129,0.283,0.2,0.454,0.2c0.14,0,0.281-0.05,0.402-0.15l3.141-2.799c0.132-0.11,0.202-0.281,0.202-0.453
			c0-0.17-0.07-0.331-0.202-0.452L7.259,7.5C7.007,7.278,6.624,7.299,6.403,7.55C6.182,7.801,6.202,8.184,6.454,8.405l1.973,1.753
			H2.105C1.773,10.158,1.5,10.429,1.5,10.762z"/>
	</g>
</g>
</svg>
