<?xml version="1.0" encoding="utf-8"?>
<!-- Generator: Adobe Illustrator 16.0.0, SVG Export Plug-In . SVG Version: 6.00 Build 0)  -->
<!DOCTYPE svg PUBLIC "-//W3C//DTD SVG 1.1//EN" "http://www.w3.org/Graphics/SVG/1.1/DTD/svg11.dtd">
<svg version="1.1" id="Capa_1" xmlns="http://www.w3.org/2000/svg" xmlns:xlink="http://www.w3.org/1999/xlink" x="0px" y="0px"
	 width="1280px" height="1200px" viewBox="0 0 1280 1200" enable-background="new 0 0 1280 1200" xml:space="preserve">
<g id="Settings">
	<g>
		<path fill="#FFFFFF" d="M1236.228,533.377c-1.897-16.868-21.565-29.544-38.572-29.544c-54.985,0-103.777-32.285-124.239-82.216
			c-20.904-51.141-7.426-110.782,33.553-148.372c12.899-11.792,14.467-31.531,3.648-45.242
			c-28.143-35.737-60.129-68.018-95.053-95.995c-13.676-10.975-33.741-9.448-45.6,3.684
			c-35.764,39.608-100.004,54.329-149.645,33.616c-51.658-21.73-84.234-74.077-81.046-130.267
			c1.049-17.65-11.851-32.996-29.446-35.045c-44.818-5.184-90.029-5.345-134.981-0.357c-17.396,1.92-30.294,16.904-29.71,34.331
			c1.956,55.637-31.013,107.067-82.157,128.017c-49.047,20.034-112.836,5.438-148.528-33.817
			c-11.796-12.93-31.536-14.52-45.278-3.809c-35.96,28.214-68.666,60.521-97.066,95.963c-11.077,13.779-9.448,33.75,3.581,45.604
			c41.76,37.817,55.244,97.978,33.549,149.707c-20.712,49.319-71.925,81.104-130.553,81.104
			c-19.025-0.611-32.576,12.158-34.656,29.455c-5.277,45.077-5.34,91.007-0.259,136.45c1.884,16.94,22.15,29.504,39.344,29.504
			c52.248-1.335,102.411,31.014,123.454,82.221c20.976,51.141,7.492,110.746-33.549,148.367
			c-12.837,11.792-14.466,31.5-3.648,45.212c27.878,35.509,59.869,67.821,94.918,96.03c13.748,11.077,33.75,9.515,45.667-3.617
			c35.897-39.706,100.133-54.399,149.577-33.646c51.788,21.663,84.363,74.005,81.176,130.227
			c-1.04,17.658,11.921,33.031,29.446,35.049c22.927,2.675,45.992,4.01,69.12,4.01c21.954,0,43.912-1.205,65.866-3.647
			c17.399-1.92,30.289-16.904,29.704-34.362c-2.014-55.605,31.013-107.036,82.091-127.949
			c49.377-20.168,112.898-5.407,148.596,33.808c11.863,12.903,31.464,14.462,45.282,3.786
			c35.894-28.146,68.531-60.427,97.066-95.968c11.073-13.747,9.511-33.75-3.585-45.6c-41.76-37.817-55.311-97.985-33.616-149.68
			c20.396-48.663,69.706-81.337,122.744-81.337l7.42,0.192c17.203,1.397,33.031-11.854,35.116-29.415
			C1241.246,624.711,1241.309,578.821,1236.228,533.377z M640.949,801.403c-110.363,0-200.134-89.771-200.134-200.133
			c0-110.358,89.771-200.134,200.134-200.134c110.357,0,200.128,89.775,200.128,200.134
			C841.077,711.633,751.307,801.403,640.949,801.403z"/>
	</g>
</g>
</svg>
