<?xml version="1.0" encoding="utf-8"?>
<!-- Generator: Adobe Illustrator 16.0.0, SVG Export Plug-In . SVG Version: 6.00 Build 0)  -->
<!DOCTYPE svg PUBLIC "-//W3C//DTD SVG 1.1//EN" "http://www.w3.org/Graphics/SVG/1.1/DTD/svg11.dtd">
<svg version="1.1" id="Layer_1" xmlns:sketch="http://www.bohemiancoding.com/sketch/ns"
	 xmlns="http://www.w3.org/2000/svg" xmlns:xlink="http://www.w3.org/1999/xlink" x="0px" y="0px" width="24px" height="24px"
	 viewBox="0 0 24 24" enable-background="new 0 0 24 24" xml:space="preserve">
<title></title>
<desc></desc>
<g>
	<path d="M19.854,4.146h-4.136V3.319c0-0.913-0.739-1.653-1.652-1.653H9.933c-0.913,0-1.654,0.74-1.654,1.653v0.827H4.146v0.826
		h0.852l0.827,15.709c0,0.911,0.741,1.652,1.653,1.652h9.094c0.914,0,1.655-0.741,1.655-1.652l0.812-15.709h0.816V4.146
		L19.854,4.146z M9.106,3.319c0-0.456,0.371-0.827,0.826-0.827h4.134c0.455,0,0.826,0.371,0.826,0.827v0.827H9.106V3.319z
		 M17.399,20.639v0.021v0.022c0,0.453-0.372,0.826-0.828,0.826H7.478c-0.454,0-0.826-0.373-0.826-0.826v-0.022L6.65,20.637
		L5.824,4.973h12.388L17.399,20.639z"/>
	<rect x="11.586" y="6.626" width="0.826" height="13.229"/>
	<polygon points="9.95,19.826 9.105,6.626 8.279,6.678 9.126,19.88 	"/>
	<polygon points="15.725,6.652 14.9,6.601 14.066,19.829 14.891,19.88 	"/>
</g>
</svg>
