<?xml version="1.0" encoding="utf-8"?>
<!-- Generator: Adobe Illustrator 16.0.0, SVG Export Plug-In . SVG Version: 6.00 Build 0)  -->
<!DOCTYPE svg PUBLIC "-//W3C//DTD SVG 1.1//EN" "http://www.w3.org/Graphics/SVG/1.1/DTD/svg11.dtd">
<svg version="1.1" id="Layer_1" xmlns:sketch="http://www.bohemiancoding.com/sketch/ns"
	 xmlns="http://www.w3.org/2000/svg" xmlns:xlink="http://www.w3.org/1999/xlink" x="0px" y="0px" width="24px" height="24px"
	 viewBox="0 0 24 24" enable-background="new 0 0 24 24" xml:space="preserve">
<g id="miu">
	<g id="Artboard-1" transform="translate(-576.000000, -407.000000)">
		<path id="editor-zoom-in-plus-add-outline-stroke" d="M585,416v-3h1v3h3v1h-3v3h-1v-3h-3v-1H585z M590.355,423.478
			c-1.377,0.96-3.05,1.522-4.855,1.522c-4.694,0-8.5-3.806-8.5-8.5s3.806-8.5,8.5-8.5s8.5,3.806,8.5,8.5
			c0,2.167-0.812,4.146-2.146,5.646l6.344,6.345c0.055,0.056,0.06,0.151,0.004,0.207l-1.211,1.211
			c-0.055,0.055-0.149,0.054-0.207-0.004L590.355,423.478L590.355,423.478z M585.5,424c4.143,0,7.5-3.357,7.5-7.5
			c0-4.142-3.357-7.5-7.5-7.5c-4.142,0-7.5,3.358-7.5,7.5C578,420.643,581.358,424,585.5,424z"/>
	</g>
</g>
</svg>
