<?xml version="1.0" encoding="utf-8"?>
<!-- Generator: Adobe Illustrator 16.0.0, SVG Export Plug-In . SVG Version: 6.00 Build 0)  -->
<!DOCTYPE svg PUBLIC "-//W3C//DTD SVG 1.0//EN" "http://www.w3.org/TR/2001/REC-SVG-20010904/DTD/svg10.dtd">
<svg version="1.0" id="Layer_1" xmlns="http://www.w3.org/2000/svg" xmlns:xlink="http://www.w3.org/1999/xlink" x="0px" y="0px"
	 width="30px" height="22px" viewBox="0 0 30 22" enable-background="new 0 0 30 22" xml:space="preserve">
<g>
	<polygon fill="#00953A" points="28.309,0.841 9.547,19.652 1.645,11.186 0.892,11.938 9.547,21.153 9.733,20.919 9.733,20.967 
		29.108,1.641 	"/>
	<path fill="#00953A" d="M9.547,21.546c-0.107,0-0.211-0.046-0.284-0.124l-8.659-9.216c-0.141-0.154-0.141-0.395,0.012-0.546
		l0.75-0.751c0.077-0.074,0.195-0.149,0.286-0.114c0.104,0,0.208,0.047,0.278,0.123l7.626,8.17L28.03,0.565
		c0.147-0.147,0.405-0.147,0.557,0l0.8,0.799C29.461,1.437,29.5,1.536,29.5,1.641c0,0.104-0.043,0.203-0.116,0.277L10.012,21.246
		c-0.027,0.024-0.058,0.049-0.089,0.064l-0.07,0.088c-0.069,0.09-0.178,0.142-0.29,0.148C9.556,21.546,9.55,21.546,9.547,21.546z
		 M1.437,11.947l8.107,8.631c0.019-0.011,0.036-0.02,0.055-0.026l18.954-18.91l-0.244-0.245L9.825,19.926
		C9.752,20,9.69,20.054,9.541,20.042c-0.107-0.002-0.208-0.046-0.278-0.124l-7.63-8.168L1.437,11.947z"/>
</g>
</svg>
