<?xml version="1.0" encoding="utf-8"?>
<!-- Generator: Adobe Illustrator 16.0.0, SVG Export Plug-In . SVG Version: 6.00 Build 0)  -->
<!DOCTYPE svg PUBLIC "-//W3C//DTD SVG 1.1//EN" "http://www.w3.org/Graphics/SVG/1.1/DTD/svg11.dtd">
<svg version="1.1" id="Layer_1" xmlns="http://www.w3.org/2000/svg" xmlns:xlink="http://www.w3.org/1999/xlink" x="0px" y="0px"
	 width="50px" height="37.831px" viewBox="0 0 50 37.831" enable-background="new 0 0 50 37.831" xml:space="preserve">
<g>
	<polygon fill="#00953A" points="47.396,1.651 15.823,33.306 2.523,19.06 1.258,20.325 15.823,35.833 16.138,35.438 16.138,35.521 
		48.743,2.998 	"/>
	<path fill="#00953A" d="M15.823,36.493c-0.181,0-0.355-0.076-0.479-0.207l-14.57-15.51c-0.237-0.26-0.237-0.664,0.02-0.917
		l1.263-1.265c0.128-0.124,0.326-0.252,0.48-0.193c0.174,0.002,0.35,0.08,0.468,0.208l12.835,13.748l31.09-31.17
		c0.248-0.248,0.682-0.248,0.938,0l1.346,1.344c0.124,0.124,0.189,0.292,0.189,0.467c0,0.175-0.071,0.342-0.195,0.466l-32.6,32.526
		c-0.047,0.041-0.098,0.082-0.15,0.107l-0.118,0.148c-0.117,0.15-0.299,0.238-0.488,0.248
		C15.839,36.493,15.829,36.493,15.823,36.493z M2.174,20.341l13.645,14.523c0.031-0.018,0.062-0.031,0.092-0.045L47.809,2.998
		l-0.412-0.413L16.292,33.769c-0.123,0.123-0.226,0.215-0.479,0.193c-0.182-0.004-0.351-0.076-0.47-0.209L2.505,20.009L2.174,20.341
		z"/>
</g>
</svg>
