<?xml version="1.0" encoding="utf-8"?>
<!-- Generator: Adobe Illustrator 16.0.0, SVG Export Plug-In . SVG Version: 6.00 Build 0)  -->
<!DOCTYPE svg PUBLIC "-//W3C//DTD SVG 1.1//EN" "http://www.w3.org/Graphics/SVG/1.1/DTD/svg11.dtd">
<svg version="1.1" id="Layer_1" xmlns="http://www.w3.org/2000/svg" xmlns:xlink="http://www.w3.org/1999/xlink" x="0px" y="0px"
	 width="108.5px" height="109px" viewBox="0 0 108.5 109" enable-background="new 0 0 108.5 109" xml:space="preserve">
<path fill="#FFFFFF" d="M-220.409,41.563c-0.2,0.232-0.547,0.25-0.772,0.039l-8.453-8.001c-0.223-0.211-0.233-0.567-0.022-0.792
	l2.694-2.845c0.211-0.224,0.567-0.233,0.791-0.021l4.618,4.37c0.223,0.212,0.571,0.193,0.771-0.04l9.021-10.481
	c0.202-0.233,0.557-0.26,0.79-0.059l2.969,2.556c0.233,0.201,0.261,0.556,0.059,0.789L-220.409,41.563z"/>
<g>
	<path fill="#FFFFFF" stroke="#FFFFFF" stroke-width="5" stroke-miterlimit="10" d="M104.25,54.497c0,27.613-22.389,50-49.998,50
		c-27.613,0-50.002-22.387-50.002-50c0-27.609,22.389-49.994,50.002-49.994C81.861,4.503,104.25,26.888,104.25,54.497z"/>
	<path fill="#E2231A" d="M76.727,35.102h-9.318l-2.959-4.58c-0.949-1.463-3.139-2.654-4.877-2.654H48.928
		c-1.738,0-3.93,1.191-4.877,2.654l-2.959,4.58h-9.318c-3.514,0-6.383,2.869-6.383,6.383v26.261c0,3.512,2.869,6.391,6.383,6.391
		h44.953c3.512,0,6.383-2.879,6.383-6.391V41.484C83.109,37.971,80.238,35.102,76.727,35.102z M54.25,67.44
		c-6.986,0-12.65-5.666-12.65-12.66c0-6.983,5.664-12.649,12.65-12.649c6.984,0,12.65,5.666,12.65,12.649
		C66.9,61.774,61.234,67.44,54.25,67.44z"/>
</g>
</svg>
