<?xml version="1.0" encoding="utf-8"?>
<!-- Generator: Adobe Illustrator 16.0.0, SVG Export Plug-In . SVG Version: 6.00 Build 0)  -->
<!DOCTYPE svg PUBLIC "-//W3C//DTD SVG 1.1//EN" "http://www.w3.org/Graphics/SVG/1.1/DTD/svg11.dtd">
<svg version="1.1" id="Capa_1" xmlns="http://www.w3.org/2000/svg" xmlns:xlink="http://www.w3.org/1999/xlink" x="0px" y="0px"
	 width="127.75px" height="34.125px" viewBox="0 0 127.75 34.125" enable-background="new 0 0 127.75 34.125" xml:space="preserve">
<g>
	<g>
		<path fill="#FFFFFF" d="M5.484,3.165h3.614v2.017H5.484v5.808c0,1.341,0.964,1.724,1.638,1.724c0.811,0,1.64-0.272,2.552-0.838
			v2.099c-0.773,0.424-2.002,0.769-2.737,0.769c-2.47,0-3.707-1.531-3.707-3.577V5.182H1.25v-0.25l4.234-4.123V3.165"/>
		<path fill="#FFFFFF" d="M14.417,3.165v2.593h0.057c1.141-1.995,2.231-2.826,3.299-2.826c0.905,0,1.768,0.426,2.708,1.312
			l-1.189,1.951c-0.685-0.665-1.562-1.119-2.11-1.119c-1.545,0-2.765,1.546-2.765,3.491v5.936h-2.26V3.165H14.417"/>
		<path fill="#FFFFFF" d="M30.371,13.394c-1.367,0.904-2.613,1.349-4.545,1.349c-3.549,0-5.525-2.917-5.525-6.052
			c0-3.448,2.174-5.759,5.324-5.759c3.023,0,4.947,2.043,4.947,6.244h-8.014c0.346,2.241,1.642,3.41,3.835,3.41
			c1.364,0,2.661-0.504,3.978-1.365V13.394 M28.341,7.68c-0.085-1.717-1.07-2.803-2.671-2.803c-1.72,0-2.766,1.009-3.072,2.803
			H28.341z"/>
		<path fill="#FFFFFF" d="M39.645,6.077c-1.281-0.835-2.473-1.179-3.312-1.179c-0.912,0-1.492,0.438-1.492,1.037
			c0,0.51,0.757,1.113,2.772,2.277c1.866,1.241,2.555,2.023,2.555,3.181c0,2-1.603,3.349-3.75,3.349
			c-1.403,0-2.495-0.289-3.969-1.049v-2.416c1.475,1.001,2.817,1.483,3.739,1.483c0.914-0.048,1.676-0.482,1.676-1.29
			c0-1.562-5.333-2.396-5.333-5.452c0-1.929,1.464-3.087,3.752-3.087c1.069,0,2.165,0.298,3.362,0.936V6.077"/>
		<path fill="#FFFFFF" d="M44.947,3.165v1.483c1.17-1.161,2.26-1.717,3.318-1.717c1.446,0,2.649,0.708,3.405,2.043
			c0.984-1.107,2.182-2.043,3.813-2.043c2.303,0,3.772,1.762,3.772,4.444v7.127h-2.254V7.475c0-1.717-1.068-2.647-2.364-2.647
			c-0.734-0.027-1.72,0.597-2.539,1.435v8.241h-2.254V7.446c0-1.844-0.941-2.619-2.059-2.619c-1.146,0-1.904,0.354-2.838,1.435
			v8.241h-2.265V3.165H44.947"/>
		<path fill="#FFFFFF" d="M73.146,8.722c0,3.581-2.503,6.021-6.16,6.021c-3.511,0-6.021-2.534-6.021-6.021
			c0-3.269,2.616-5.79,6.021-5.79C70.559,2.932,73.146,5.354,73.146,8.722 M63.279,8.722c0,2.394,1.498,3.991,3.679,3.991
			c2.377,0,3.884-1.524,3.884-3.969c0-2.198-1.625-3.796-3.884-3.796C64.826,4.948,63.279,6.546,63.279,8.722z"/>
		<path fill="#FFFFFF" d="M77.171,4.648h0.049c0.857-1.093,2.125-1.717,3.405-1.717c2.15,0,3.874,1.464,3.874,4.571v7H82.24V7.475
			c0-1.667-0.857-2.748-2.232-2.748c-0.986,0-1.781,0.455-2.837,1.634v8.143h-2.266V3.165h2.266V4.648"/>
		<path fill="#FFFFFF" d="M90.293,3.165h3.606v2.017h-3.606v5.808c0,1.341,0.961,1.724,1.624,1.724c0.808,0,1.648-0.272,2.566-0.838
			v2.099c-0.795,0.424-2.008,0.769-2.743,0.769c-2.46,0-3.718-1.531-3.718-3.577V5.182h-1.981v-0.25l4.252-4.123V3.165"/>
		<path fill="#FFFFFF" d="M105.619,13.394c-1.364,0.904-2.61,1.349-4.537,1.349c-3.558,0-5.531-2.917-5.531-6.052
			c0-3.448,2.181-5.759,5.319-5.759c3.028,0,4.95,2.043,4.95,6.244h-8.014c0.355,2.241,1.652,3.41,3.832,3.41
			c1.37,0,2.661-0.504,3.98-1.365V13.394 M103.589,7.68c-0.072-1.717-1.057-2.803-2.662-2.803c-1.718,0-2.765,1.009-3.072,2.803
			H103.589z"/>
		<path fill="#FFFFFF" d="M114.892,6.077c-1.27-0.835-2.46-1.179-3.3-1.179c-0.924,0-1.496,0.438-1.496,1.037
			c0,0.51,0.76,1.113,2.766,2.277c1.875,1.241,2.565,2.023,2.565,3.181c0,2-1.603,3.349-3.762,3.349
			c-1.392,0-2.484-0.289-3.957-1.049v-2.416c1.473,1.001,2.815,1.483,3.729,1.483c0.918-0.048,1.674-0.482,1.674-1.29
			c0-1.562-5.331-2.396-5.331-5.452c0-1.929,1.476-3.087,3.751-3.087c1.067,0,2.166,0.298,3.361,0.936V6.077"/>
	</g>
	<g>
		<rect x="44.914" y="14.714" fill="#FFFFFF" width="2.233" height="17.239"/>
		<path fill="#FFFFFF" d="M57.529,31.953v-1.441c-0.931,1.021-2.238,1.68-3.34,1.68c-2.28,0-3.891-1.657-3.891-4.54v-7.036h2.234
			v7.191c0,1.596,0.778,2.504,2.303,2.504c1.014,0,1.967-0.558,2.694-1.582v-8.113h2.243v11.338H57.529"/>
		<path fill="#FFFFFF" d="M70.207,23.562c-1.291-0.869-2.148-1.112-3.125-1.112c-2.034,0-3.445,1.547-3.445,3.845
			c0,2.344,1.505,3.762,3.819,3.762c0.964,0,1.858-0.248,2.999-0.746v2.223c-0.761,0.347-2.187,0.659-3.373,0.659
			c-3.361,0-5.728-2.365-5.728-5.696c0-3.742,2.161-6.113,5.584-6.113c1.302,0,2.178,0.299,3.268,0.776V23.562"/>
		<path fill="#FFFFFF" d="M80.455,23.562c-1.295-0.869-2.138-1.112-3.129-1.112c-2.034,0-3.444,1.547-3.444,3.845
			c0,2.344,1.516,3.762,3.818,3.762c0.971,0,1.869-0.248,2.999-0.746v2.223c-0.749,0.347-2.184,0.659-3.373,0.659
			c-3.362,0-5.737-2.365-5.737-5.696c0-3.742,2.176-6.113,5.588-6.113c1.317,0,2.183,0.299,3.279,0.776V23.562"/>
		<path fill="#FFFFFF" d="M84.473,22.099h0.06c0.848-1.092,2.105-1.717,3.362-1.717c2.209,0,3.854,1.519,3.854,4.621v6.95h-2.243
			v-7.027c0-1.667-0.856-2.749-2.21-2.749c-0.978,0-1.765,0.455-2.823,1.634v8.143h-2.232V14.714h2.232V22.099"/>
		<path fill="#FFFFFF" d="M104.393,30.843c-1.361,0.907-2.596,1.349-4.513,1.349c-3.511,0-5.478-2.916-5.478-6.051
			c0-3.448,2.171-5.759,5.278-5.759c2.982,0,4.9,2.045,4.9,6.245h-7.935c0.352,2.24,1.635,3.409,3.797,3.409
			c1.355,0,2.635-0.503,3.951-1.366V30.843 M102.37,25.132c-0.073-1.718-1.058-2.804-2.634-2.804c-1.715,0-2.739,1.008-3.042,2.804
			H102.37z"/>
		<path fill="#FFFFFF" d="M109.612,20.615h3.571v2.017h-3.571v5.807c0,1.341,0.953,1.723,1.609,1.723
			c0.806,0,1.625-0.271,2.528-0.836v2.1c-0.759,0.424-1.978,0.767-2.705,0.767c-2.43,0-3.675-1.53-3.675-3.576v-5.983h-1.951v-0.25
			l4.194-4.122V20.615"/>
		<path fill="#FFFFFF" d="M117.983,20.615h3.566v2.017h-3.566v5.807c0,1.341,0.943,1.723,1.61,1.723
			c0.804,0,1.624-0.271,2.528-0.836v2.1c-0.776,0.424-1.982,0.767-2.705,0.767c-2.441,0-3.676-1.53-3.676-3.576v-5.983h-1.952v-0.25
			l4.194-4.122V20.615"/>
		<path fill="#FFFFFF" d="M124.922,18.516c-0.732,0-1.333-0.617-1.333-1.349c0-0.736,0.601-1.334,1.333-1.334
			c0.722,0,1.328,0.598,1.328,1.334C126.25,17.898,125.644,18.516,124.922,18.516 M126.025,31.953h-2.232V20.615h2.232V31.953z"/>
	</g>
</g>
</svg>
