<?xml version="1.0" encoding="utf-8"?>
<!-- Generator: Adobe Illustrator 16.0.0, SVG Export Plug-In . SVG Version: 6.00 Build 0)  -->
<!DOCTYPE svg PUBLIC "-//W3C//DTD SVG 1.1//EN" "http://www.w3.org/Graphics/SVG/1.1/DTD/svg11.dtd">
<svg version="1.1" id="Layer_1" xmlns="http://www.w3.org/2000/svg" xmlns:xlink="http://www.w3.org/1999/xlink" x="0px" y="0px"
	 width="108.5px" height="109px" viewBox="0 0 108.5 109" enable-background="new 0 0 108.5 109" xml:space="preserve">
<path fill="#FFFFFF" d="M-220.409,41.563c-0.2,0.232-0.547,0.25-0.772,0.039l-8.453-8.001c-0.223-0.211-0.233-0.567-0.022-0.792
	l2.694-2.845c0.211-0.224,0.567-0.233,0.791-0.021l4.618,4.37c0.223,0.212,0.571,0.193,0.771-0.04l9.021-10.481
	c0.202-0.233,0.557-0.26,0.79-0.059l2.969,2.556c0.233,0.201,0.261,0.556,0.059,0.789L-220.409,41.563z"/>
<g>
	<circle fill="#FFFFFF" cx="53.987" cy="54.5" r="50"/>
	<path fill="#00953A" d="M49.441,81.171c-0.598,0.692-1.638,0.745-2.303,0.114L21.771,57.281c-0.664-0.637-0.701-1.697-0.064-2.377
		l8.083-8.53c0.628-0.679,1.702-0.703,2.369-0.065l13.853,13.105c0.679,0.637,1.719,0.58,2.316-0.121l27.065-31.436
		c0.597-0.699,1.67-0.783,2.371-0.179l8.905,7.668c0.701,0.598,0.777,1.67,0.178,2.366L49.441,81.171z"/>
</g>
</svg>
