<?xml version="1.0" encoding="utf-8"?>
<!-- Generator: Adobe Illustrator 16.0.0, SVG Export Plug-In . SVG Version: 6.00 Build 0)  -->
<!DOCTYPE svg PUBLIC "-//W3C//DTD SVG 1.1//EN" "http://www.w3.org/Graphics/SVG/1.1/DTD/svg11.dtd">
<svg version="1.1" id="Layer_1" xmlns="http://www.w3.org/2000/svg" xmlns:xlink="http://www.w3.org/1999/xlink" x="0px" y="0px"
	 width="274.699px" height="237.349px" viewBox="0 0 274.699 237.349" enable-background="new 0 0 274.699 237.349"
	 xml:space="preserve">
<g>
	<path fill="#FFFFFF" d="M222.537,46.672c4.018,0,5.77,2.267,5.77,7.417v7.107c0,5.771-2.576,7.624-6.799,7.624h-4.43V46.672
		H222.537z M240.979,108.48c-1.135-2.678-1.238-5.254-1.238-8.756V88.599c0-7.521-1.854-12.979-7.52-15.35
		c5.049-2.368,7.416-7.21,7.416-14.628v-5.666c0-11.124-5.047-16.584-16.789-16.584h-17.102v72.108h11.332V79.122h3.916
		c5.148,0,7.416,2.474,7.416,9.168v11.332c0,5.871,0.412,7.004,1.029,8.858H240.979z M179.17,46.672h19.572V36.372h-30.904v72.108
		h30.904V98.179H179.17V77.062h15.555V66.76H179.17V46.672z M145.178,46.672c3.603,0,5.562,1.648,5.562,6.799v10.816
		c0,5.15-1.959,6.799-5.562,6.799h-5.357V46.672H145.178z M145.178,36.372H128.49v72.108h11.331V81.388h5.357
		c11.33,0,16.892-6.284,16.892-17.821v-9.374C162.07,42.655,156.508,36.372,145.178,36.372 M86.977,36.372v54.905
		c0,11.537,5.768,18.131,16.893,18.131c11.126,0,16.894-6.594,16.894-18.131V36.372h-10.712v55.627c0,5.151-2.266,7.005-5.872,7.005
		c-3.605,0-5.871-1.854-5.871-7.005V36.372H86.977z M47.523,53.678c0,20.603,22.146,23.384,22.146,38.218
		c0,5.149-2.267,7.004-5.871,7.004c-3.605,0-5.873-1.854-5.873-7.004v-5.152H47.213v4.431c0,11.538,5.771,18.131,16.895,18.131
		c11.125,0,16.896-6.593,16.896-18.131c0-20.603-22.149-23.385-22.149-38.219c0-5.149,2.062-7.106,5.666-7.106
		c3.607,0,5.666,1.957,5.666,7.106v2.987h10.712v-2.265c0-11.539-5.665-18.131-16.687-18.131
		C53.188,35.547,47.523,42.139,47.523,53.678"/>
	<line fill="none" stroke="#FFFFFF" stroke-width="2.557" x1="45.744" y1="114.29" x2="242.447" y2="114.29"/>
	<path fill="none" stroke="#231F20" stroke-width="5.113" d="M154.053,168.462"/>
	<path fill="#FFFFFF" d="M93.152,209.935c5.273,0,9.549-4.275,9.549-9.549s-4.275-9.547-9.549-9.547s-9.549,4.273-9.549,9.547
		S87.879,209.935,93.152,209.935"/>
	<path fill="none" stroke="#FFFFFF" stroke-width="5.113" d="M154.053,25.979c0,0,0-11.962-11.96-11.962H44.213
		c0,0-11.961,0-11.961,11.962v185.394c0,0,0,11.959,11.961,11.959h97.879c0,0,11.96,0,11.96-11.959v-42.911"/>
	<line fill="none" stroke="#FFFFFF" stroke-width="5.113" x1="154.053" y1="25.719" x2="154.053" y2="31.311"/>
	<path fill="none" stroke="#231F20" stroke-width="1.278" d="M156.045,168.462"/>
	<path fill="#FFFFFF" d="M167.637,164.987h2.242v1.249h-2.242v3.598c0,0.83,0.6,1.066,1.018,1.066c0.502,0,1.016-0.168,1.58-0.52
		v1.301c-0.479,0.264-1.238,0.477-1.697,0.477c-1.527,0-2.293-0.948-2.293-2.215v-3.707h-1.227v-0.155l2.619-2.554V164.987z"/>
	<path fill="#FFFFFF" d="M173.174,164.987v1.606h0.035c0.705-1.236,1.381-1.751,2.043-1.751c0.561,0,1.094,0.263,1.676,0.813
		l-0.734,1.209c-0.426-0.414-0.969-0.695-1.311-0.695c-0.955,0-1.709,0.959-1.709,2.164v3.676h-1.4v-7.022H173.174z"/>
	<path fill="#FFFFFF" d="M181.797,167.783c-0.053-1.063-0.662-1.736-1.652-1.736c-1.066,0-1.715,0.625-1.904,1.736H181.797z
		 M183.055,171.322c-0.846,0.561-1.619,0.836-2.814,0.836c-2.199,0-3.422-1.807-3.422-3.748c0-2.136,1.346-3.567,3.297-3.567
		c1.873,0,3.064,1.265,3.064,3.868h-4.965c0.215,1.387,1.018,2.111,2.375,2.111c0.846,0,1.65-0.312,2.465-0.845V171.322z"/>
	<path fill="#FFFFFF" d="M188.801,166.791c-0.795-0.517-1.533-0.73-2.051-0.73c-0.566,0-0.928,0.271-0.928,0.643
		c0,0.316,0.469,0.689,1.719,1.41c1.154,0.77,1.582,1.254,1.582,1.972c0,1.237-0.994,2.073-2.322,2.073
		c-0.869,0-1.547-0.179-2.459-0.649v-1.497c0.912,0.62,1.744,0.919,2.316,0.919c0.564-0.03,1.035-0.299,1.035-0.8
		c0-0.967-3.301-1.482-3.301-3.375c0-1.195,0.908-1.913,2.324-1.913c0.662,0,1.342,0.185,2.084,0.579V166.791z"/>
	<path fill="#FFFFFF" d="M192.084,164.987v0.918c0.725-0.719,1.4-1.062,2.055-1.062c0.896,0,1.643,0.438,2.111,1.265
		c0.607-0.686,1.35-1.265,2.361-1.265c1.426,0,2.336,1.091,2.336,2.751v4.416h-1.396v-4.354c0-1.062-0.662-1.639-1.465-1.639
		c-0.453-0.019-1.064,0.369-1.572,0.889v5.104h-1.396v-4.371c0-1.143-0.582-1.621-1.275-1.621c-0.711,0-1.178,0.219-1.758,0.889
		v5.104h-1.402v-7.022H192.084z"/>
	<path fill="#FFFFFF" d="M203.439,168.429c0,1.482,0.928,2.471,2.279,2.471c1.473,0,2.406-0.943,2.406-2.457
		c0-1.363-1.006-2.352-2.406-2.352C204.398,166.091,203.439,167.08,203.439,168.429 M209.551,168.429
		c0,2.217-1.551,3.729-3.814,3.729c-2.176,0-3.73-1.57-3.73-3.729c0-2.025,1.619-3.587,3.73-3.587
		C207.949,164.842,209.551,166.342,209.551,168.429"/>
	<path fill="#FFFFFF" d="M212.045,165.905h0.031c0.529-0.677,1.314-1.063,2.107-1.063c1.334,0,2.4,0.908,2.4,2.832v4.336h-1.4
		v-4.354c0-1.033-0.529-1.701-1.381-1.701c-0.611,0-1.105,0.281-1.758,1.012v5.043h-1.404v-7.022h1.404V165.905z"/>
	<path fill="#FFFFFF" d="M220.172,164.987h2.234v1.249h-2.234v3.598c0,0.83,0.596,1.066,1.006,1.066c0.504,0,1.023-0.168,1.592-0.52
		v1.301c-0.494,0.264-1.246,0.477-1.701,0.477c-1.523,0-2.303-0.948-2.303-2.215v-3.707h-1.227v-0.155l2.633-2.554V164.987z"/>
	<path fill="#FFFFFF" d="M228.41,167.783c-0.047-1.063-0.656-1.736-1.648-1.736c-1.066,0-1.715,0.625-1.904,1.736H228.41z
		 M229.666,171.322c-0.844,0.561-1.615,0.836-2.811,0.836c-2.203,0-3.426-1.807-3.426-3.748c0-2.136,1.352-3.567,3.295-3.567
		c1.877,0,3.066,1.265,3.066,3.868h-4.963c0.219,1.387,1.023,2.111,2.373,2.111c0.85,0,1.648-0.312,2.465-0.845V171.322z"/>
	<path fill="#FFFFFF" d="M235.41,166.791c-0.785-0.517-1.523-0.73-2.045-0.73c-0.572,0-0.926,0.271-0.926,0.643
		c0,0.316,0.473,0.689,1.713,1.41c1.162,0.77,1.588,1.254,1.588,1.972c0,1.237-0.992,2.073-2.328,2.073
		c-0.865,0-1.539-0.179-2.451-0.649v-1.497c0.912,0.62,1.744,0.919,2.311,0.919c0.566-0.03,1.035-0.299,1.035-0.8
		c0-0.967-3.303-1.482-3.303-3.375c0-1.195,0.916-1.913,2.324-1.913c0.662,0,1.342,0.185,2.082,0.579V166.791z"/>
	<rect x="192.062" y="172.14" fill="#FFFFFF" width="1.383" height="10.68"/>
	<path fill="#FFFFFF" d="M199.877,182.82v-0.893c-0.576,0.631-1.385,1.039-2.066,1.039c-1.414,0-2.412-1.027-2.412-2.812v-4.357
		h1.383v4.455c0,0.988,0.482,1.551,1.428,1.551c0.627,0,1.219-0.347,1.668-0.98v-5.025h1.391v7.023H199.877z"/>
	<path fill="#FFFFFF" d="M207.732,177.621c-0.803-0.538-1.332-0.689-1.938-0.689c-1.26,0-2.133,0.958-2.133,2.382
		c0,1.452,0.932,2.331,2.365,2.331c0.598,0,1.15-0.154,1.857-0.461v1.375c-0.471,0.215-1.354,0.408-2.09,0.408
		c-2.08,0-3.547-1.465-3.547-3.529c0-2.316,1.338-3.786,3.459-3.786c0.805,0,1.35,0.185,2.025,0.481V177.621z"/>
	<path fill="#FFFFFF" d="M214.08,177.621c-0.803-0.538-1.324-0.689-1.939-0.689c-1.26,0-2.133,0.958-2.133,2.382
		c0,1.452,0.938,2.331,2.365,2.331c0.6,0,1.156-0.154,1.857-0.461v1.375c-0.465,0.215-1.354,0.408-2.09,0.408
		c-2.082,0-3.555-1.465-3.555-3.529c0-2.316,1.348-3.786,3.463-3.786c0.814,0,1.352,0.185,2.031,0.481V177.621z"/>
	<path fill="#FFFFFF" d="M216.568,176.715h0.039c0.521-0.677,1.301-1.063,2.08-1.063c1.371,0,2.389,0.939,2.389,2.862v4.306h-1.391
		v-4.354c0-1.032-0.531-1.703-1.369-1.703c-0.605,0-1.092,0.282-1.748,1.012v5.045h-1.381v-10.68h1.381V176.715z"/>
	<path fill="#FFFFFF" d="M227.654,178.593c-0.047-1.064-0.654-1.736-1.633-1.736c-1.061,0-1.695,0.624-1.885,1.736H227.654z
		 M228.908,182.13c-0.844,0.563-1.609,0.836-2.797,0.836c-2.176,0-3.395-1.805-3.395-3.747c0-2.137,1.348-3.567,3.273-3.567
		c1.844,0,3.033,1.266,3.033,3.868h-4.916c0.219,1.388,1.014,2.112,2.354,2.112c0.838,0,1.631-0.312,2.447-0.848V182.13z"/>
	<path fill="#FFFFFF" d="M232.141,175.796h2.211v1.249h-2.211v3.597c0,0.829,0.59,1.068,0.996,1.068c0.498,0,1.008-0.17,1.566-0.52
		v1.301c-0.471,0.263-1.227,0.475-1.676,0.475c-1.506,0-2.277-0.949-2.277-2.215v-3.706h-1.209v-0.155l2.6-2.555V175.796z"/>
	<path fill="#FFFFFF" d="M237.326,175.796h2.209v1.249h-2.209v3.597c0,0.829,0.584,1.068,0.996,1.068c0.498,0,1.008-0.17,1.566-0.52
		v1.301c-0.48,0.263-1.227,0.475-1.676,0.475c-1.512,0-2.275-0.949-2.275-2.215v-3.706h-1.211v-0.155l2.6-2.555V175.796z"/>
	<path fill="#FFFFFF" d="M242.307,182.82h-1.383v-7.023h1.383V182.82z M241.623,174.496c-0.453,0-0.824-0.383-0.824-0.836
		c0-0.456,0.371-0.826,0.824-0.826c0.447,0,0.824,0.37,0.824,0.826C242.447,174.113,242.07,174.496,241.623,174.496"/>
	<path fill="#FFFF00" d="M224.102,129.105c0,11.289,12.137,12.812,12.137,20.941c0,2.822-1.242,3.838-3.219,3.838
		s-3.217-1.016-3.217-3.838v-2.822h-5.869v2.428c0,6.32,3.16,9.933,9.256,9.933s9.258-3.612,9.258-9.933
		c0-11.29-12.137-12.814-12.137-20.941c0-2.822,1.129-3.895,3.105-3.895c1.975,0,3.104,1.072,3.104,3.895v1.637h5.871v-1.242
		c0-6.32-3.105-9.934-9.145-9.934S224.102,122.785,224.102,129.105 M202.033,149.652c0,6.32,3.33,9.933,9.426,9.933
		s9.426-3.612,9.426-9.933v-20.547c0-6.32-3.33-9.934-9.426-9.934s-9.426,3.613-9.426,9.934V149.652z M208.242,128.71
		c0-2.822,1.242-3.895,3.217-3.895s3.217,1.072,3.217,3.895v21.336c0,2.822-1.242,3.895-3.217,3.895s-3.217-1.072-3.217-3.895
		V128.71z M180.641,129.105c0,11.289,12.135,12.812,12.135,20.941c0,2.822-1.24,3.838-3.217,3.838c-1.975,0-3.215-1.016-3.215-3.838
		v-2.822h-5.873v2.428c0,6.32,3.162,9.933,9.258,9.933s9.256-3.612,9.256-9.933c0-11.29-12.135-12.814-12.135-20.941
		c0-2.822,1.129-3.895,3.105-3.895s3.104,1.072,3.104,3.895v1.637h5.869v-1.242c0-6.32-3.104-9.934-9.143-9.934
		S180.641,122.785,180.641,129.105 M167.941,125.267c2.203,0,3.16,1.242,3.16,4.064v3.895c0,3.16-1.41,4.178-3.723,4.178h-2.43
		v-12.137H167.941z M178.045,159.134c-0.619-1.469-0.678-2.879-0.678-4.799v-6.096c0-4.121-1.014-7.112-4.119-8.41
		c2.764-1.298,4.062-3.951,4.062-8.015v-3.104c0-6.096-2.764-9.088-9.199-9.088h-9.371v39.512h6.209v-16.088h2.146
		c2.822,0,4.062,1.355,4.062,5.023v6.209c0,3.219,0.227,3.838,0.564,4.855H178.045z M135.994,119.623v30.085
		c0,6.322,3.163,9.933,9.258,9.933c6.095,0,9.255-3.61,9.255-9.933v-30.085h-5.869v30.48c0,2.822-1.242,3.838-3.216,3.838
		c-1.977,0-3.217-1.016-3.217-3.838v-30.48H135.994z M126.627,144.402v5.645c0,2.822-1.242,3.838-3.218,3.838
		s-3.218-1.016-3.218-3.838V128.71c0-2.822,1.242-3.895,3.218-3.895s3.218,1.072,3.218,3.895v4.232h5.87v-3.838
		c0-6.32-3.162-9.934-9.258-9.934c-6.095,0-9.257,3.613-9.257,9.934v20.547c0,6.32,3.162,9.933,9.257,9.933
		c6.096,0,9.258-3.612,9.258-9.933v-5.25H126.627z M103.654,159.134h6.379v-39.512H104.5v23.65l-6.377-23.65h-7.789v39.512h5.588
		v-28.618L103.654,159.134z M67.531,149.652c0,6.32,3.33,9.933,9.425,9.933c6.098,0,9.428-3.612,9.428-9.933v-20.547
		c0-6.32-3.33-9.934-9.428-9.934c-6.095,0-9.425,3.613-9.425,9.934V149.652z M73.74,128.71c0-2.822,1.24-3.895,3.216-3.895
		s3.219,1.072,3.219,3.895v21.336c0,2.822-1.243,3.895-3.219,3.895s-3.216-1.072-3.216-3.895V128.71z M58.388,144.402v5.645
		c0,2.822-1.243,3.838-3.218,3.838c-1.976,0-3.217-1.016-3.217-3.838V128.71c0-2.822,1.241-3.895,3.217-3.895
		c1.975,0,3.218,1.072,3.218,3.895v4.232h5.868v-3.838c0-6.32-3.16-9.934-9.254-9.934c-6.097,0-9.258,3.613-9.258,9.934v20.547
		c0,6.32,3.161,9.933,9.258,9.933c6.094,0,9.254-3.612,9.254-9.933v-5.25H58.388z"/>
</g>
</svg>
